# xmcd
#
# Track frame offsets: 
#        150
#        14842
#        28270
#        40385
#        52229
#        64793
#        77062
#        90646
#        102723
#        115611
#        128250
#        142486
#        156112
#        170142
#        183025
#        196297
#        205199
#        218223
#        231680
#        245004
#        258803
#        271127
#        284127
#        295510
#        307170
#
# Disc length: 4253 seconds
#
# Revision: 2
# Processed by: cddbd v1.5.2PL0 Copyright (c) Steve Scherf et al.
# Submitted via: ExactAudioCopy v1.0b3
#
DISCID=89109b19
DTITLE=Merle Travis - Hot Pickin' CD1 (Proper)
DYEAR=2003
DGENRE=Country
TTITLE0=You'll Be Lonesome, Too
TTITLE1=Will The Circle Be Unbroken
TTITLE2=No Vacancy
TTITLE3=Cincinnati Lou
TTITLE4=What A Shame
TTITLE5=Missouri
TTITLE6=Divorce Me C.O.D.
TTITLE7=Nine Pound Hammer
TTITLE8=Sixteen Tons
TTITLE9=Dark As A Dungeon
TTITLE10=Over By Number Nine
TTITLE11=That's All
TTITLE12=John Henry
TTITLE13=I Am A Pilgrim
TTITLE14=If We Never Meet Again
TTITLE15=Over In Gloryland
TTITLE16=Sweet Temptation
TTITLE17=So Round, So Firm, So Fully Packed
TTITLE18=Three Times Seven
TTITLE19=I'm Sick And Tired Of You, Little Darling
TTITLE20=Steel Guitar Rag
TTITLE21=Lawdy, What A Gal
TTITLE22=Sioux City Sue
TTITLE23=Muskrat
TTITLE24=Fat Gal
EXTD=
EXTT0=
EXTT1=
EXTT2=
EXTT3=
EXTT4=
EXTT5=
EXTT6=
EXTT7=
EXTT8=
EXTT9=
EXTT10=
EXTT11=
EXTT12=
EXTT13=
EXTT14=
EXTT15=
EXTT16=
EXTT17=
EXTT18=
EXTT19=
EXTT20=
EXTT21=
EXTT22=
EXTT23=
EXTT24=
PLAYORDER=
